<?xml version="1.0" standalone="no"?>
<!DOCTYPE svg PUBLIC "-//W3C//DTD SVG 20010904//EN"
 "http://www.w3.org/TR/2001/REC-SVG-20010904/DTD/svg10.dtd">
<svg version="1.0" xmlns="http://www.w3.org/2000/svg"
 width="105.000000pt" height="129.000000pt" viewBox="0 0 105.000000 129.000000"
 preserveAspectRatio="xMidYMid meet">

<g transform="translate(0.000000,129.000000) scale(0.100000,-0.100000)"
fill="#000000" stroke="none">
<path d="M396 1244 c-171 -41 -318 -185 -370 -363 -20 -68 -21 -198 -1 -270
31 -118 59 -155 285 -384 l215 -218 215 218 c226 229 254 267 285 384 20 72
19 202 -1 270 -80 271 -353 430 -628 363z m11 -151 c20 -9 54 -42 78 -75 l43
-58 27 45 c46 80 134 120 208 96 68 -23 137 -122 137 -197 0 -49 -43 -157 -92
-229 -53 -78 -207 -249 -257 -285 l-28 -19 -58 52 c-83 74 -200 211 -246 287
-21 36 -46 96 -55 133 -21 82 -9 136 42 195 59 69 130 89 201 55z"/>
<path d="M415 949 c-5 -7 -21 -51 -36 -98 l-27 -86 -51 -3 c-52 -3 -57 -7 -42
-30 5 -9 26 -12 67 -10 l59 3 15 53 c8 28 17 52 21 52 3 0 16 -62 29 -137 13
-76 27 -146 33 -157 15 -30 33 -2 73 109 49 137 48 136 68 61 10 -37 23 -69
29 -73 5 -3 30 15 54 40 24 26 52 47 62 47 16 0 31 18 31 36 0 2 -16 4 -36 4
-27 0 -41 -7 -61 -31 -14 -16 -29 -27 -33 -22 -4 4 -15 38 -25 76 -19 72 -36
96 -52 75 -6 -7 -23 -49 -38 -93 -16 -44 -32 -91 -37 -104 -5 -13 -10 -22 -13
-20 -2 3 -16 70 -30 149 -25 140 -43 187 -60 159z"/>
</g>
</svg>
